<?xml version="1.0" encoding="UTF-8" standalone="no"?>
<svg
   xmlns:dc="http://purl.org/dc/elements/1.1/"
   xmlns:cc="http://creativecommons.org/ns#"
   xmlns:rdf="http://www.w3.org/1999/02/22-rdf-syntax-ns#"
   xmlns:svg="http://www.w3.org/2000/svg"
   xmlns="http://www.w3.org/2000/svg"
   xmlns:sodipodi="http://sodipodi.sourceforge.net/DTD/sodipodi-0.dtd"
   xmlns:inkscape="http://www.inkscape.org/namespaces/inkscape"
   width="500"
   zoomAndPan="magnify"
   viewBox="0 0 375 262.499992"
   height="350"
   preserveAspectRatio="xMidYMid meet"
   version="1.2"
   id="svg1241"
   sodipodi:docname="Aspect2025 white.svg"
   inkscape:version="1.0.2-2 (e86c870879, 2021-01-15)">
  <metadata
     id="metadata1245">
    <rdf:RDF>
      <cc:Work
         rdf:about="">
        <dc:format>image/svg+xml</dc:format>
        <dc:type
           rdf:resource="http://purl.org/dc/dcmitype/StillImage" />
        <dc:title></dc:title>
      </cc:Work>
    </rdf:RDF>
  </metadata>
  <sodipodi:namedview
     pagecolor="#ffffff"
     bordercolor="#666666"
     borderopacity="1"
     objecttolerance="10"
     gridtolerance="10"
     guidetolerance="10"
     inkscape:pageopacity="0"
     inkscape:pageshadow="2"
     inkscape:window-width="2126"
     inkscape:window-height="1172"
     id="namedview1243"
     showgrid="false"
     inkscape:zoom="1.984"
     inkscape:cx="218.15308"
     inkscape:cy="178.00035"
     inkscape:window-x="1427"
     inkscape:window-y="848"
     inkscape:window-maximized="0"
     inkscape:current-layer="db455d5525"
     inkscape:document-rotation="0" />
  <defs
     id="defs1046">
    <clipPath
       id="bcb080ad6d">
      <path
         d="M 0.355469 0 L 374.640625 0 L 374.640625 262 L 0.355469 262 Z M 0.355469 0 "
         id="path1040" />
    </clipPath>
    <clipPath
       id="cda1f82315">
      <path
         d="M 5.003906 7.570312 L 245.296875 7.570312 L 245.296875 256 L 5.003906 256 Z M 5.003906 7.570312 "
         id="path1043" />
    </clipPath>
  </defs>
  <g
     id="db455d5525">
    <g
       clip-rule="nonzero"
       clip-path="url(#bcb080ad6d)"
       id="g1052">
      <path
         style="fill:#ffffff;fill-opacity:0;fill-rule:nonzero;stroke:none"
         d="M 0.355469,0 H 374.64453 V 262 H 0.355469 Z m 0,0"
         id="path1048" />
    </g>
    <g
       clip-rule="nonzero"
       clip-path="url(#cda1f82315)"
       id="g1056"
       style="fill:#ffffff">
      <path
         style="fill:#ffffff;fill-opacity:1;fill-rule:nonzero;stroke:none"
         d="M 245.28516,75.859375 C 223.25,42.984375 185.75391,21.34375 143.20312,21.34375 c -67.832026,0 -122.816401,54.984375 -122.816401,122.81641 0,49.6289 29.4375,92.38281 71.808593,111.75 -50.65625,-16.83594 -87.1875,-64.61719 -87.1875,-120.92579 0,-70.363276 57.039063,-127.402339 127.398438,-127.402339 49.01953,0 91.57812,27.6875 112.87891,68.277344 z m 0,0"
         id="path1054" />
    </g>
    <path
       style="fill:#ffffff;fill-opacity:1;fill-rule:nonzero;stroke:none"
       d="m 213.40625,218.79687 c -19.625,22.22657 -48.33203,36.24219 -80.30859,36.24219 -59.152348,0 -107.105472,-47.95312 -107.105472,-107.10156 0,-34.78125 16.582031,-65.691406 42.269531,-85.257812 C 51.585938,81.566406 41.464844,106.375 41.464844,133.54297 c 0,59.15234 47.953125,107.10547 107.101566,107.10547 24.37109,0 46.84375,-8.14063 64.83984,-21.85157 z m 0,0"
       id="path1058" />
    <g
       style="fill:#ffffff;fill-opacity:1"
       id="g1064">
      <g
         transform="translate(47.700726,161.65104)"
         id="g1062"
         style="fill:#ffffff">
        <path
           style="stroke:none;fill:#ffffff"
           d="M 74.234375,0 H 64.5 c -1.28125,-2.820312 -2.417969,-5.347656 -3.40625,-7.578125 -0.980469,-2.238281 -1.949219,-4.445313 -2.90625,-6.625 -3.824219,-0.0625 -8.078125,-0.101563 -12.765625,-0.125 -4.6875,-0.03125 -9.359375,-0.03125 -14.015625,0 -4.65625,0.02344 -8.953125,0.0625 -12.890625,0.125 L 11.890625,0 H 2.46875 c 5.007812,-9.738281 9.90625,-19.53125 14.6875,-29.375 4.789062,-9.84375 9.503906,-19.632812 14.140625,-29.375 1.269531,0.105469 2.742187,0.199219 4.421875,0.28125 1.675781,0.07422 3.351562,0.08594 5.03125,0.03125 1.675781,-0.05078 3.15625,-0.15625 4.4375,-0.3125 4.675781,9.742188 9.4375,19.53125 14.28125,29.375 C 64.3125,-19.53125 69.234375,-9.738281 74.234375,0 Z M 21,-19.5625 c 3.507812,0.05469 7.300781,0.09375 11.375,0.125 4.070312,0.03125 8.128906,0.03125 12.171875,0 4.039063,-0.03125 7.789063,-0.07031 11.25,-0.125 -1.117187,-2.550781 -2.445313,-5.394531 -3.984375,-8.53125 -1.542969,-3.144531 -3.417969,-6.859375 -5.625,-11.140625 -2.210938,-4.28125 -4.9375,-9.40625 -8.1875,-15.375 -2.605469,4.84375 -5.34375,10.3125 -8.21875,16.40625 -2.875,6.09375 -5.804688,12.308594 -8.78125,18.640625 z m 0,0"
           id="path1060" />
      </g>
    </g>
    <g
       style="fill:#ffffff;fill-opacity:1"
       id="g1070">
      <g
         transform="translate(116.88924,161.65104)"
         id="g1068"
         style="fill:#ffffff">
        <path
           style="stroke:none;fill:#ffffff"
           d="M 29.21875,0.875 C 25.0625,0.875 20.828125,0.460938 16.515625,-0.359375 12.210938,-1.179688 8.4375,-2.421875 5.1875,-4.078125 c 0.269531,-0.957031 0.40625,-2.113281 0.40625,-3.46875 0,-1.351563 -0.136719,-2.457031 -0.40625,-3.3125 1.707031,1.335937 3.875,2.46875 6.5,3.40625 2.632812,0.929687 5.484375,1.648437 8.546875,2.15625 3.0625,0.5 5.976563,0.75 8.75,0.75 5.101563,0 9,-0.648437 11.6875,-1.953125 2.6875,-1.3125 4.03125,-3.21875 4.03125,-5.71875 0,-1.914062 -0.734375,-3.335938 -2.203125,-4.265625 -1.460938,-0.925781 -3.386719,-1.550781 -5.78125,-1.875 -2.398438,-0.320313 -5.03125,-0.507813 -7.90625,-0.5625 -2.875,-0.05078 -5.761719,-0.179687 -8.65625,-0.390625 -2.898438,-0.21875 -5.542969,-0.660156 -7.9375,-1.328125 -2.398438,-0.664063 -4.328125,-1.769531 -5.796875,-3.3125 -1.460937,-1.539063 -2.1875,-3.722656 -2.1875,-6.546875 0,-2.445312 0.539063,-4.46875 1.625,-6.0625 1.09375,-1.59375 2.546875,-2.867188 4.359375,-3.828125 1.8125,-0.957031 3.789062,-1.675781 5.9375,-2.15625 2.15625,-0.476563 4.3125,-0.785156 6.46875,-0.921875 2.15625,-0.132812 4.113281,-0.203125 5.875,-0.203125 4.257812,0 8.035156,0.324219 11.328125,0.96875 3.300781,0.636719 6.765625,1.484375 10.390625,2.546875 -0.273438,0.960938 -0.398438,1.984375 -0.375,3.078125 0.03125,1.09375 0.179688,2.328125 0.453125,3.703125 -2.980469,-1.488281 -6.335937,-2.710938 -10.0625,-3.671875 -3.730469,-0.957031 -7.777344,-1.4375 -12.140625,-1.4375 -5.429688,0 -9.476562,0.640625 -12.140625,1.921875 -2.65625,1.28125 -3.984375,3.304688 -3.984375,6.0625 0,2.03125 0.726562,3.542969 2.1875,4.53125 1.46875,0.980469 3.410156,1.632812 5.828125,1.953125 2.425781,0.3125 5.085937,0.496094 7.984375,0.546875 2.90625,0.05469 5.796875,0.164062 8.671875,0.328125 2.875,0.15625 5.519531,0.570313 7.9375,1.234375 2.425781,0.65625 4.367187,1.761719 5.828125,3.3125 1.46875,1.542969 2.203125,3.726562 2.203125,6.546875 0,4.574219 -2.078125,7.871094 -6.234375,9.890625 C 42.226562,-0.132812 36.507812,0.875 29.21875,0.875 Z m 0,0"
           id="path1066" />
      </g>
    </g>
    <g
       style="fill:#ffffff;fill-opacity:1"
       id="g1076">
      <g
         transform="translate(165.7275,161.65104)"
         id="g1074"
         style="fill:#ffffff">
        <path
           style="stroke:none;fill:#ffffff"
           d="m 36.328125,-43.671875 c 4.195313,0 7.890625,0.90625 11.078125,2.71875 3.195312,1.8125 5.703125,4.328125 7.515625,7.546875 1.8125,3.21875 2.71875,6.960938 2.71875,11.21875 0,4.523438 -0.976563,8.539062 -2.921875,12.046875 -1.9375,3.511719 -4.730469,6.265625 -8.375,8.265625 -3.648438,2 -8.078125,3 -13.296875,3 -3.730469,0 -7.28125,-0.839844 -10.65625,-2.515625 -3.375,-1.675781 -5.996094,-4.035156 -7.859375,-7.078125 0,4.054688 0.05078,8.109375 0.15625,12.171875 0.101562,4.070313 0.265625,8.160156 0.484375,12.265625 -1.65625,-0.21875 -3.203125,-0.328125 -4.640625,-0.328125 -1.4375,0 -2.84375,0.08203 -4.21875,0.25 0.207031,-1.867187 0.363281,-4.4375 0.46875,-7.71875 0.101562,-3.273437 0.171875,-6.980469 0.203125,-11.125 0.03125,-4.15625 0.03125,-8.519531 0,-13.09375 C 6.953125,-20.617188 6.882812,-25.125 6.78125,-29.5625 6.675781,-34.007812 6.519531,-38.148438 6.3125,-41.984375 c 1.59375,-0.113281 3.203125,-0.300781 4.828125,-0.5625 1.625,-0.269531 2.941406,-0.585937 3.953125,-0.953125 -0.375,2.980469 -0.65625,5.789062 -0.84375,8.421875 -0.1875,2.625 -0.335938,5.136719 -0.4375,7.53125 h 0.640625 c 1.007813,-2.863281 2.472656,-5.519531 4.390625,-7.96875 1.914062,-2.457031 4.320312,-4.429687 7.21875,-5.921875 2.90625,-1.488281 6.328125,-2.234375 10.265625,-2.234375 z M 30.734375,-3.4375 c 3.457031,0 6.625,-0.675781 9.5,-2.03125 2.875,-1.351562 5.175781,-3.398438 6.90625,-6.140625 1.726563,-2.738281 2.59375,-6.132813 2.59375,-10.1875 0,-3.238281 -0.683594,-6.082031 -2.046875,-8.53125 -1.355469,-2.445313 -3.273438,-4.375 -5.75,-5.78125 -2.46875,-1.414063 -5.433594,-2.125 -8.890625,-2.125 -3.25,0 -5.996094,0.523437 -8.234375,1.5625 -2.230469,1.03125 -4.023438,2.375 -5.375,4.03125 -1.355469,1.648437 -2.390625,3.453125 -3.109375,5.421875 -0.71875,1.96875 -1.199219,3.929688 -1.4375,5.875 -0.242187,1.9375 -0.359375,3.652344 -0.359375,5.140625 v 4.875 c 2.175781,2.929687 4.710938,4.976563 7.609375,6.140625 2.90625,1.167969 5.769531,1.75 8.59375,1.75 z m 0,0"
           id="path1072" />
      </g>
    </g>
    <g
       style="fill:#ffffff;fill-opacity:1"
       id="g1082">
      <g
         transform="translate(219.83289,161.65104)"
         id="g1080"
         style="fill:#ffffff">
        <path
           style="stroke:none;fill:#ffffff"
           d="M 55.328125,-11.09375 C 55.109375,-10.082031 55,-8.898438 55,-7.546875 c 0,1.355469 0.109375,2.511719 0.328125,3.46875 -3.355469,1.65625 -7.09375,2.898437 -11.21875,3.71875 C 39.984375,0.460938 35.894531,0.875 31.84375,0.875 c -9.148438,0 -16.078125,-1.976562 -20.796875,-5.9375 -4.710937,-3.96875 -7.0625,-9.492188 -7.0625,-16.578125 0,-4.675781 1.035156,-8.648437 3.109375,-11.921875 2.082031,-3.28125 5.039062,-5.796875 8.875,-7.546875 3.832031,-1.757813 8.351562,-2.640625 13.5625,-2.640625 4.945312,0 9.40625,0.882812 13.375,2.640625 3.96875,1.75 7.054688,4.371094 9.265625,7.859375 2.207031,3.492188 3.148437,7.8125 2.828125,12.96875 -17.242188,-0.15625 -31.558594,-0.15625 -42.953125,0 0.375,4.742188 2.195313,8.523438 5.46875,11.34375 3.28125,2.824219 8.535156,4.203125 15.765625,4.140625 2.445312,-0.050781 5.039062,-0.328125 7.78125,-0.828125 2.75,-0.507812 5.382812,-1.226562 7.90625,-2.15625 2.53125,-0.9375 4.648438,-2.039062 6.359375,-3.3125 z M 29.53125,-38.390625 c -5.261719,0 -9.4375,1.292969 -12.53125,3.875 -3.085938,2.574219 -4.761719,6.308594 -5.03125,11.203125 5.425781,0.105469 11.132812,0.171875 17.125,0.203125 5.988281,0.03125 11.960938,0.01563 17.921875,-0.04687 -0.210937,-3.34375 -1.125,-6.144531 -2.75,-8.40625 -1.625,-2.269531 -3.714844,-3.972656 -6.265625,-5.109375 -2.554688,-1.144531 -5.375,-1.71875 -8.46875,-1.71875 z m 0,0"
           id="path1078" />
      </g>
    </g>
    <g
       style="fill:#ffffff;fill-opacity:1"
       id="g1088">
      <g
         transform="translate(272.26238,161.65104)"
         id="g1086"
         style="fill:#ffffff">
        <path
           style="stroke:none;fill:#ffffff"
           d="m 32.171875,0.796875 c -9.054687,0 -16.015625,-1.96875 -20.890625,-5.90625 -4.867188,-3.9375 -7.296875,-9.363281 -7.296875,-16.28125 0,-6.96875 2.429687,-12.421875 7.296875,-16.359375 4.875,-3.945312 11.835938,-5.921875 20.890625,-5.921875 7.925781,0 15.164063,1.652344 21.71875,4.953125 -0.273437,1.011719 -0.40625,2.320312 -0.40625,3.921875 0,1.59375 0.132813,2.898437 0.40625,3.90625 -2.449219,-1.96875 -5.40625,-3.644531 -8.875,-5.03125 C 41.554688,-37.304688 37.617188,-38 33.203125,-38 c -6.8125,0 -12.09375,1.4375 -15.84375,4.3125 -3.75,2.875 -5.625,6.976562 -5.625,12.296875 0,5.273437 1.875,9.328125 5.625,12.171875 3.75,2.84375 9.03125,4.265625 15.84375,4.265625 4.46875,0 8.40625,-0.609375 11.8125,-1.828125 3.40625,-1.226562 6.363281,-2.742188 8.875,-4.546875 -0.273437,1.011719 -0.40625,2.210937 -0.40625,3.59375 0,1.375 0.132813,2.542969 0.40625,3.5 -6.605469,3.355469 -13.84375,5.03125 -21.71875,5.03125 z m 0,0"
           id="path1084" />
      </g>
    </g>
    <g
       style="fill:#ffffff;fill-opacity:1"
       id="g1094">
      <g
         transform="translate(322.53712,161.65104)"
         id="g1092"
         style="fill:#ffffff">
        <path
           style="stroke:none;fill:#ffffff"
           d="m 19.390625,-37.765625 c -0.05469,3.40625 -0.105469,6.761719 -0.15625,10.0625 -0.05469,3.304687 -0.105469,6.523437 -0.15625,9.65625 -0.05469,3.199219 0.425781,5.730469 1.4375,7.59375 1.007813,1.867187 2.378906,3.210937 4.109375,4.03125 1.726562,0.824219 3.628906,1.289063 5.703125,1.390625 2.1875,0.054688 4.421875,-0.1875 6.703125,-0.71875 2.289062,-0.53125 4.421875,-1.195312 6.390625,-2 -0.15625,1.011719 -0.25,2.027344 -0.28125,3.046875 -0.02344,1.011719 0.04687,1.996094 0.203125,2.953125 -2.023438,0.6875 -4.339844,1.296875 -6.953125,1.828125 C 33.785156,0.609375 31.15625,0.847656 28.5,0.796875 25.625,0.742188 22.9375,0.238281 20.4375,-0.71875 c -2.5,-0.957031 -4.527344,-2.566406 -6.078125,-4.828125 -1.542969,-2.257813 -2.3125,-5.359375 -2.3125,-9.296875 0,-1.007812 0,-2.6875 0,-5.03125 0,-2.34375 -0.01563,-5.070312 -0.04687,-8.1875 -0.02344,-3.113281 -0.05859,-6.316406 -0.109375,-9.609375 -2.074219,0.05469 -4.109375,0.105469 -6.109375,0.15625 -1.992188,0.05469 -3.96875,0.132813 -5.9375,0.234375 C -0.0507812,-38.019531 0,-38.921875 0,-39.984375 0,-41.054688 -0.0507812,-41.9375 -0.15625,-42.625 c 1.914062,0.05469 3.882812,0.121094 5.90625,0.203125 2.019531,0.07422 4.039062,0.136719 6.0625,0.1875 -0.05469,-2.65625 -0.121094,-5.179687 -0.203125,-7.578125 -0.07422,-2.394531 -0.167969,-4.5 -0.28125,-6.3125 1.550781,-0.15625 3.015625,-0.335938 4.390625,-0.546875 1.382812,-0.21875 2.691406,-0.59375 3.921875,-1.125 l -0.25,15.640625 c 4.101563,0 8.191406,-0.03516 12.265625,-0.109375 4.070312,-0.08203 7.992188,-0.203125 11.765625,-0.359375 -0.15625,1.75 -0.15625,3.53125 0,5.34375 -3.835937,-0.15625 -7.773437,-0.273438 -11.8125,-0.359375 -4.042969,-0.08203 -8.117187,-0.125 -12.21875,-0.125 z m 0,0"
           id="path1090" />
      </g>
    </g>
    <g
       style="fill:#ffffff;fill-opacity:1"
       id="g1100">
      <g
         transform="translate(187.73871,179.37913)"
         id="g1098"
         style="fill:#ffffff">
        <path
           style="stroke:none;fill:#ffffff"
           d="m 6.34375,-1.21875 c 0.1875,0 0.335938,0.0625 0.453125,0.1875 0.125,0.125 0.1875,0.273438 0.1875,0.4375 0,0.179688 -0.0625,0.324219 -0.1875,0.4375 C 6.679688,-0.0507812 6.53125,0 6.34375,0 H 1.734375 C 1.554688,0 1.40625,-0.0625 1.28125,-0.1875 c -0.125,-0.125 -0.1875,-0.273438 -0.1875,-0.453125 v -8 c 0,-0.175781 0.0625,-0.328125 0.1875,-0.453125 0.125,-0.125 0.273438,-0.1875 0.453125,-0.1875 H 6.34375 c 0.1875,0 0.335938,0.058594 0.453125,0.171875 0.125,0.117187 0.1875,0.265625 0.1875,0.453125 0,0.179688 -0.0625,0.324219 -0.1875,0.4375 C 6.679688,-8.113281 6.53125,-8.0625 6.34375,-8.0625 h -3.9375 v 2.703125 H 5.75 c 0.1875,0 0.335938,0.058594 0.453125,0.171875 0.125,0.117188 0.1875,0.261719 0.1875,0.4375 0,0.1875 -0.0625,0.339844 -0.1875,0.453125 C 6.085938,-4.191406 5.9375,-4.140625 5.75,-4.140625 H 2.40625 v 2.921875 z m 0,0"
           id="path1096" />
      </g>
    </g>
    <g
       style="fill:#ffffff;fill-opacity:1"
       id="g1106">
      <g
         transform="translate(203.92509,179.37913)"
         id="g1104"
         style="fill:#ffffff">
        <path
           style="stroke:none;fill:#ffffff"
           d="m 4.484375,-7.109375 c 1.582031,0 2.375,0.960937 2.375,2.875 v 3.59375 c 0,0.179687 -0.0625,0.328125 -0.1875,0.453125 C 6.554688,-0.0625 6.410156,0 6.234375,0 6.054688,0 5.90625,-0.0625 5.78125,-0.1875 5.664062,-0.3125 5.609375,-0.460938 5.609375,-0.640625 v -3.59375 C 5.609375,-4.753906 5.488281,-5.164062 5.25,-5.46875 5.007812,-5.78125 4.617188,-5.9375 4.078125,-5.9375 c -0.355469,0 -0.679687,0.078125 -0.96875,0.234375 -0.28125,0.15625 -0.507813,0.367187 -0.671875,0.625 -0.15625,0.261719 -0.234375,0.542969 -0.234375,0.84375 v 3.59375 c 0,0.179687 -0.0625,0.328125 -0.1875,0.453125 C 1.898438,-0.0625 1.75,0 1.5625,0 1.375,0 1.222656,-0.0546875 1.109375,-0.171875 0.992188,-0.296875 0.9375,-0.453125 0.9375,-0.640625 V -6.3125 c 0,-0.175781 0.054688,-0.320312 0.171875,-0.4375 0.125,-0.125 0.273437,-0.1875 0.453125,-0.1875 0.1875,0 0.335938,0.0625 0.453125,0.1875 0.125,0.117188 0.1875,0.261719 0.1875,0.4375 v 0.46875 C 2.429688,-6.195312 2.75,-6.492188 3.15625,-6.734375 c 0.414062,-0.25 0.859375,-0.375 1.328125,-0.375 z m 0,0"
           id="path1102" />
      </g>
    </g>
    <g
       style="fill:#ffffff;fill-opacity:1"
       id="g1112">
      <g
         transform="translate(220.36314,179.37913)"
         id="g1110"
         style="fill:#ffffff">
        <path
           style="stroke:none;fill:#ffffff"
           d="m 6.75,-7.03125 c 0.175781,0 0.320312,0.0625 0.4375,0.1875 0.125,0.117188 0.1875,0.265625 0.1875,0.453125 V -0.5625 C 7.375,0.15625 7.222656,0.753906 6.921875,1.234375 6.617188,1.722656 6.207031,2.082031 5.6875,2.3125 5.164062,2.539062 4.578125,2.65625 3.921875,2.65625 c -0.355469,0 -0.773437,-0.0625 -1.25,-0.1875 C 2.203125,2.34375 1.90625,2.210938 1.78125,2.078125 1.5,1.941406 1.359375,1.765625 1.359375,1.546875 c 0,-0.054687 0.019531,-0.121094 0.0625,-0.203125 C 1.515625,1.113281 1.675781,1 1.90625,1 2.019531,1 2.144531,1.03125 2.28125,1.09375 2.988281,1.363281 3.539062,1.5 3.9375,1.5 4.644531,1.5 5.1875,1.328125 5.5625,0.984375 5.9375,0.648438 6.125,0.1875 6.125,-0.40625 V -1.125 C 5.9375,-0.78125 5.625,-0.484375 5.1875,-0.234375 4.75,0.00390625 4.285156,0.125 3.796875,0.125 3.191406,0.125 2.632812,-0.0234375 2.125,-0.328125 1.625,-0.640625 1.226562,-1.070312 0.9375,-1.625 0.65625,-2.175781 0.515625,-2.796875 0.515625,-3.484375 c 0,-0.6875 0.140625,-1.304687 0.421875,-1.859375 0.289062,-0.550781 0.6875,-0.984375 1.1875,-1.296875 0.5,-0.3125 1.050781,-0.46875 1.65625,-0.46875 0.476562,0 0.925781,0.117187 1.34375,0.34375 0.425781,0.21875 0.757812,0.484375 1,0.796875 v -0.421875 c 0,-0.1875 0.054688,-0.335937 0.171875,-0.453125 0.113281,-0.125 0.265625,-0.1875 0.453125,-0.1875 z m -2.796875,6 c 0.425781,0 0.804687,-0.101562 1.140625,-0.3125 0.34375,-0.207031 0.609375,-0.5 0.796875,-0.875 0.1875,-0.375 0.28125,-0.796875 0.28125,-1.265625 0,-0.46875 -0.09375,-0.882813 -0.28125,-1.25 -0.1875,-0.375 -0.453125,-0.664063 -0.796875,-0.875 C 4.757812,-5.828125 4.378906,-5.9375 3.953125,-5.9375 c -0.429687,0 -0.808594,0.109375 -1.140625,0.328125 -0.335938,0.210937 -0.601562,0.5 -0.796875,0.875 -0.1875,0.375 -0.28125,0.792969 -0.28125,1.25 0,0.460937 0.09375,0.875 0.28125,1.25 0.195313,0.375 0.460937,0.671875 0.796875,0.890625 0.332031,0.210938 0.710938,0.3125 1.140625,0.3125 z m 0,0"
           id="path1108" />
      </g>
    </g>
    <g
       style="fill:#ffffff;fill-opacity:1"
       id="g1118">
      <g
         transform="translate(237.30453,179.37913)"
         id="g1116"
         style="fill:#ffffff">
        <path
           style="stroke:none;fill:#ffffff"
           d="m 2.140625,-0.640625 c 0,0.179687 -0.0625,0.328125 -0.1875,0.453125 C 1.835938,-0.0625 1.6875,0 1.5,0 1.320312,0 1.171875,-0.0625 1.046875,-0.1875 0.929688,-0.3125 0.875,-0.460938 0.875,-0.640625 V -6.375 c 0,-0.175781 0.054688,-0.328125 0.171875,-0.453125 0.125,-0.125 0.273437,-0.1875 0.453125,-0.1875 0.1875,0 0.335938,0.0625 0.453125,0.1875 0.125,0.125 0.1875,0.277344 0.1875,0.453125 z M 1.5,-7.890625 c -0.261719,0 -0.449219,-0.039063 -0.5625,-0.125 C 0.832031,-8.109375 0.78125,-8.257812 0.78125,-8.46875 v -0.203125 c 0,-0.21875 0.054688,-0.367187 0.171875,-0.453125 0.125,-0.09375 0.3125,-0.140625 0.5625,-0.140625 0.238281,0 0.414063,0.046875 0.53125,0.140625 0.113281,0.09375 0.171875,0.246094 0.171875,0.453125 v 0.203125 c 0,0.210938 -0.058594,0.359375 -0.171875,0.453125 C 1.929688,-7.929688 1.75,-7.890625 1.5,-7.890625 Z m 0,0"
           id="path1114" />
      </g>
    </g>
    <g
       style="fill:#ffffff;fill-opacity:1"
       id="g1124">
      <g
         transform="translate(248.94757,179.37913)"
         id="g1122"
         style="fill:#ffffff">
        <path
           style="stroke:none;fill:#ffffff"
           d="m 4.484375,-7.109375 c 1.582031,0 2.375,0.960937 2.375,2.875 v 3.59375 c 0,0.179687 -0.0625,0.328125 -0.1875,0.453125 C 6.554688,-0.0625 6.410156,0 6.234375,0 6.054688,0 5.90625,-0.0625 5.78125,-0.1875 5.664062,-0.3125 5.609375,-0.460938 5.609375,-0.640625 v -3.59375 C 5.609375,-4.753906 5.488281,-5.164062 5.25,-5.46875 5.007812,-5.78125 4.617188,-5.9375 4.078125,-5.9375 c -0.355469,0 -0.679687,0.078125 -0.96875,0.234375 -0.28125,0.15625 -0.507813,0.367187 -0.671875,0.625 -0.15625,0.261719 -0.234375,0.542969 -0.234375,0.84375 v 3.59375 c 0,0.179687 -0.0625,0.328125 -0.1875,0.453125 C 1.898438,-0.0625 1.75,0 1.5625,0 1.375,0 1.222656,-0.0546875 1.109375,-0.171875 0.992188,-0.296875 0.9375,-0.453125 0.9375,-0.640625 V -6.3125 c 0,-0.175781 0.054688,-0.320312 0.171875,-0.4375 0.125,-0.125 0.273437,-0.1875 0.453125,-0.1875 0.1875,0 0.335938,0.0625 0.453125,0.1875 0.125,0.117188 0.1875,0.261719 0.1875,0.4375 v 0.46875 C 2.429688,-6.195312 2.75,-6.492188 3.15625,-6.734375 c 0.414062,-0.25 0.859375,-0.375 1.328125,-0.375 z m 0,0"
           id="path1120" />
      </g>
    </g>
    <g
       style="fill:#ffffff;fill-opacity:1"
       id="g1130">
      <g
         transform="translate(265.38563,179.37913)"
         id="g1128"
         style="fill:#ffffff">
        <path
           style="stroke:none;fill:#ffffff"
           d="m 7.03125,-3.734375 c -0.011719,0.15625 -0.078125,0.292969 -0.203125,0.40625 -0.117187,0.105469 -0.257813,0.15625 -0.421875,0.15625 H 1.734375 c 0.0625,0.648437 0.304687,1.167969 0.734375,1.5625 0.425781,0.386719 0.953125,0.578125 1.578125,0.578125 0.414063,0 0.753906,-0.0625 1.015625,-0.1875 0.269531,-0.125 0.507812,-0.285156 0.71875,-0.484375 0.125,-0.070313 0.25,-0.109375 0.375,-0.109375 0.15625,0 0.28125,0.054688 0.375,0.15625 0.101562,0.105469 0.15625,0.230469 0.15625,0.375 0,0.1875 -0.089844,0.355469 -0.265625,0.5 -0.25,0.261719 -0.589844,0.480469 -1.015625,0.65625 -0.429688,0.1640625 -0.859375,0.25 -1.296875,0.25 -0.71875,0 -1.351563,-0.1445312 -1.890625,-0.4375 -0.542969,-0.300781 -0.964844,-0.722656 -1.265625,-1.265625 -0.292969,-0.539063 -0.4375,-1.148437 -0.4375,-1.828125 0,-0.738281 0.148437,-1.390625 0.453125,-1.953125 0.3125,-0.5625 0.710938,-0.992187 1.203125,-1.296875 0.5,-0.300781 1.039063,-0.453125 1.625,-0.453125 0.5625,0 1.085937,0.148437 1.578125,0.4375 0.5,0.292969 0.894531,0.699219 1.1875,1.21875 0.300781,0.511719 0.457031,1.085937 0.46875,1.71875 z M 3.796875,-5.9375 c -0.5,0 -0.933594,0.140625 -1.296875,0.421875 -0.355469,0.28125 -0.59375,0.710937 -0.71875,1.28125 h 3.921875 v -0.09375 C 5.648438,-4.796875 5.4375,-5.179688 5.0625,-5.484375 4.6875,-5.785156 4.265625,-5.9375 3.796875,-5.9375 Z m 0,0"
           id="path1126" />
      </g>
    </g>
    <g
       style="fill:#ffffff;fill-opacity:1"
       id="g1136">
      <g
         transform="translate(281.572,179.37913)"
         id="g1134"
         style="fill:#ffffff">
        <path
           style="stroke:none;fill:#ffffff"
           d="m 7.03125,-3.734375 c -0.011719,0.15625 -0.078125,0.292969 -0.203125,0.40625 -0.117187,0.105469 -0.257813,0.15625 -0.421875,0.15625 H 1.734375 c 0.0625,0.648437 0.304687,1.167969 0.734375,1.5625 0.425781,0.386719 0.953125,0.578125 1.578125,0.578125 0.414063,0 0.753906,-0.0625 1.015625,-0.1875 0.269531,-0.125 0.507812,-0.285156 0.71875,-0.484375 0.125,-0.070313 0.25,-0.109375 0.375,-0.109375 0.15625,0 0.28125,0.054688 0.375,0.15625 0.101562,0.105469 0.15625,0.230469 0.15625,0.375 0,0.1875 -0.089844,0.355469 -0.265625,0.5 -0.25,0.261719 -0.589844,0.480469 -1.015625,0.65625 -0.429688,0.1640625 -0.859375,0.25 -1.296875,0.25 -0.71875,0 -1.351563,-0.1445312 -1.890625,-0.4375 -0.542969,-0.300781 -0.964844,-0.722656 -1.265625,-1.265625 -0.292969,-0.539063 -0.4375,-1.148437 -0.4375,-1.828125 0,-0.738281 0.148437,-1.390625 0.453125,-1.953125 0.3125,-0.5625 0.710938,-0.992187 1.203125,-1.296875 0.5,-0.300781 1.039063,-0.453125 1.625,-0.453125 0.5625,0 1.085937,0.148437 1.578125,0.4375 0.5,0.292969 0.894531,0.699219 1.1875,1.21875 0.300781,0.511719 0.457031,1.085937 0.46875,1.71875 z M 3.796875,-5.9375 c -0.5,0 -0.933594,0.140625 -1.296875,0.421875 -0.355469,0.28125 -0.59375,0.710937 -0.71875,1.28125 h 3.921875 v -0.09375 C 5.648438,-4.796875 5.4375,-5.179688 5.0625,-5.484375 4.6875,-5.785156 4.265625,-5.9375 3.796875,-5.9375 Z m 0,0"
           id="path1132" />
      </g>
    </g>
    <g
       style="fill:#ffffff;fill-opacity:1"
       id="g1142">
      <g
         transform="translate(297.75838,179.37913)"
         id="g1140"
         style="fill:#ffffff">
        <path
           style="stroke:none;fill:#ffffff"
           d="m 4.40625,-7.109375 c 0.226562,0 0.425781,0.0625 0.59375,0.1875 0.164062,0.117187 0.25,0.261719 0.25,0.4375 0,0.21875 -0.058594,0.386719 -0.171875,0.5 -0.105469,0.105469 -0.242187,0.15625 -0.40625,0.15625 -0.074219,0 -0.195313,-0.023437 -0.359375,-0.078125 C 4.132812,-5.96875 3.988281,-6 3.875,-6 3.601562,-6 3.335938,-5.90625 3.078125,-5.71875 2.816406,-5.53125 2.601562,-5.269531 2.4375,-4.9375 2.28125,-4.601562 2.203125,-4.234375 2.203125,-3.828125 v 3.1875 c 0,0.179687 -0.0625,0.328125 -0.1875,0.453125 C 1.898438,-0.0625 1.75,0 1.5625,0 1.375,0 1.222656,-0.0546875 1.109375,-0.171875 0.992188,-0.296875 0.9375,-0.453125 0.9375,-0.640625 V -6.3125 c 0,-0.175781 0.054688,-0.320312 0.171875,-0.4375 0.125,-0.125 0.273437,-0.1875 0.453125,-0.1875 0.1875,0 0.335938,0.0625 0.453125,0.1875 0.125,0.117188 0.1875,0.261719 0.1875,0.4375 v 0.6875 c 0.1875,-0.4375 0.472656,-0.789062 0.859375,-1.0625 0.394531,-0.269531 0.84375,-0.410156 1.34375,-0.421875 z m 0,0"
           id="path1138" />
      </g>
    </g>
    <g
       style="fill:#ffffff;fill-opacity:1"
       id="g1148">
      <g
         transform="translate(311.86516,179.37913)"
         id="g1146"
         style="fill:#ffffff">
        <path
           style="stroke:none;fill:#ffffff"
           d="m 2.140625,-0.640625 c 0,0.179687 -0.0625,0.328125 -0.1875,0.453125 C 1.835938,-0.0625 1.6875,0 1.5,0 1.320312,0 1.171875,-0.0625 1.046875,-0.1875 0.929688,-0.3125 0.875,-0.460938 0.875,-0.640625 V -6.375 c 0,-0.175781 0.054688,-0.328125 0.171875,-0.453125 0.125,-0.125 0.273437,-0.1875 0.453125,-0.1875 0.1875,0 0.335938,0.0625 0.453125,0.1875 0.125,0.125 0.1875,0.277344 0.1875,0.453125 z M 1.5,-7.890625 c -0.261719,0 -0.449219,-0.039063 -0.5625,-0.125 C 0.832031,-8.109375 0.78125,-8.257812 0.78125,-8.46875 v -0.203125 c 0,-0.21875 0.054688,-0.367187 0.171875,-0.453125 0.125,-0.09375 0.3125,-0.140625 0.5625,-0.140625 0.238281,0 0.414063,0.046875 0.53125,0.140625 0.113281,0.09375 0.171875,0.246094 0.171875,0.453125 v 0.203125 c 0,0.210938 -0.058594,0.359375 -0.171875,0.453125 C 1.929688,-7.929688 1.75,-7.890625 1.5,-7.890625 Z m 0,0"
           id="path1144" />
      </g>
    </g>
    <g
       style="fill:#ffffff;fill-opacity:1"
       id="g1154">
      <g
         transform="translate(323.5082,179.37913)"
         id="g1152"
         style="fill:#ffffff">
        <path
           style="stroke:none;fill:#ffffff"
           d="m 4.484375,-7.109375 c 1.582031,0 2.375,0.960937 2.375,2.875 v 3.59375 c 0,0.179687 -0.0625,0.328125 -0.1875,0.453125 C 6.554688,-0.0625 6.410156,0 6.234375,0 6.054688,0 5.90625,-0.0625 5.78125,-0.1875 5.664062,-0.3125 5.609375,-0.460938 5.609375,-0.640625 v -3.59375 C 5.609375,-4.753906 5.488281,-5.164062 5.25,-5.46875 5.007812,-5.78125 4.617188,-5.9375 4.078125,-5.9375 c -0.355469,0 -0.679687,0.078125 -0.96875,0.234375 -0.28125,0.15625 -0.507813,0.367187 -0.671875,0.625 -0.15625,0.261719 -0.234375,0.542969 -0.234375,0.84375 v 3.59375 c 0,0.179687 -0.0625,0.328125 -0.1875,0.453125 C 1.898438,-0.0625 1.75,0 1.5625,0 1.375,0 1.222656,-0.0546875 1.109375,-0.171875 0.992188,-0.296875 0.9375,-0.453125 0.9375,-0.640625 V -6.3125 c 0,-0.175781 0.054688,-0.320312 0.171875,-0.4375 0.125,-0.125 0.273437,-0.1875 0.453125,-0.1875 0.1875,0 0.335938,0.0625 0.453125,0.1875 0.125,0.117188 0.1875,0.261719 0.1875,0.4375 v 0.46875 C 2.429688,-6.195312 2.75,-6.492188 3.15625,-6.734375 c 0.414062,-0.25 0.859375,-0.375 1.328125,-0.375 z m 0,0"
           id="path1150" />
      </g>
    </g>
    <g
       style="fill:#ffffff;fill-opacity:1"
       id="g1160">
      <g
         transform="translate(339.94626,179.37913)"
         id="g1158"
         style="fill:#ffffff">
        <path
           style="stroke:none;fill:#ffffff"
           d="m 6.75,-7.03125 c 0.175781,0 0.320312,0.0625 0.4375,0.1875 0.125,0.117188 0.1875,0.265625 0.1875,0.453125 V -0.5625 C 7.375,0.15625 7.222656,0.753906 6.921875,1.234375 6.617188,1.722656 6.207031,2.082031 5.6875,2.3125 5.164062,2.539062 4.578125,2.65625 3.921875,2.65625 c -0.355469,0 -0.773437,-0.0625 -1.25,-0.1875 C 2.203125,2.34375 1.90625,2.210938 1.78125,2.078125 1.5,1.941406 1.359375,1.765625 1.359375,1.546875 c 0,-0.054687 0.019531,-0.121094 0.0625,-0.203125 C 1.515625,1.113281 1.675781,1 1.90625,1 2.019531,1 2.144531,1.03125 2.28125,1.09375 2.988281,1.363281 3.539062,1.5 3.9375,1.5 4.644531,1.5 5.1875,1.328125 5.5625,0.984375 5.9375,0.648438 6.125,0.1875 6.125,-0.40625 V -1.125 C 5.9375,-0.78125 5.625,-0.484375 5.1875,-0.234375 4.75,0.00390625 4.285156,0.125 3.796875,0.125 3.191406,0.125 2.632812,-0.0234375 2.125,-0.328125 1.625,-0.640625 1.226562,-1.070312 0.9375,-1.625 0.65625,-2.175781 0.515625,-2.796875 0.515625,-3.484375 c 0,-0.6875 0.140625,-1.304687 0.421875,-1.859375 0.289062,-0.550781 0.6875,-0.984375 1.1875,-1.296875 0.5,-0.3125 1.050781,-0.46875 1.65625,-0.46875 0.476562,0 0.925781,0.117187 1.34375,0.34375 0.425781,0.21875 0.757812,0.484375 1,0.796875 v -0.421875 c 0,-0.1875 0.054688,-0.335937 0.171875,-0.453125 0.113281,-0.125 0.265625,-0.1875 0.453125,-0.1875 z m -2.796875,6 c 0.425781,0 0.804687,-0.101562 1.140625,-0.3125 0.34375,-0.207031 0.609375,-0.5 0.796875,-0.875 0.1875,-0.375 0.28125,-0.796875 0.28125,-1.265625 0,-0.46875 -0.09375,-0.882813 -0.28125,-1.25 -0.1875,-0.375 -0.453125,-0.664063 -0.796875,-0.875 C 4.757812,-5.828125 4.378906,-5.9375 3.953125,-5.9375 c -0.429687,0 -0.808594,0.109375 -1.140625,0.328125 -0.335938,0.210937 -0.601562,0.5 -0.796875,0.875 -0.1875,0.375 -0.28125,0.792969 -0.28125,1.25 0,0.460937 0.09375,0.875 0.28125,1.25 0.195313,0.375 0.460937,0.671875 0.796875,0.890625 0.332031,0.210938 0.710938,0.3125 1.140625,0.3125 z m 0,0"
           id="path1156" />
      </g>
    </g>
    <g
       style="fill:#ffffff;fill-opacity:1"
       id="g1166">
      <g
         transform="translate(231.92579,197.04017)"
         id="g1164"
         style="fill:#ffffff">
        <path
           style="stroke:none;fill:#ffffff"
           d="m 6.75,-7.03125 c 0.175781,0 0.320312,0.0625 0.4375,0.1875 0.125,0.117188 0.1875,0.265625 0.1875,0.453125 V -0.5625 C 7.375,0.15625 7.222656,0.753906 6.921875,1.234375 6.617188,1.722656 6.207031,2.082031 5.6875,2.3125 5.164062,2.539062 4.578125,2.65625 3.921875,2.65625 c -0.355469,0 -0.773437,-0.0625 -1.25,-0.1875 C 2.203125,2.34375 1.90625,2.210938 1.78125,2.078125 1.5,1.941406 1.359375,1.765625 1.359375,1.546875 c 0,-0.054687 0.019531,-0.121094 0.0625,-0.203125 C 1.515625,1.113281 1.675781,1 1.90625,1 2.019531,1 2.144531,1.03125 2.28125,1.09375 2.988281,1.363281 3.539062,1.5 3.9375,1.5 4.644531,1.5 5.1875,1.328125 5.5625,0.984375 5.9375,0.648438 6.125,0.1875 6.125,-0.40625 V -1.125 C 5.9375,-0.78125 5.625,-0.484375 5.1875,-0.234375 4.75,0.00390625 4.285156,0.125 3.796875,0.125 3.191406,0.125 2.632812,-0.0234375 2.125,-0.328125 1.625,-0.640625 1.226562,-1.070312 0.9375,-1.625 0.65625,-2.175781 0.515625,-2.796875 0.515625,-3.484375 c 0,-0.6875 0.140625,-1.304687 0.421875,-1.859375 0.289062,-0.550781 0.6875,-0.984375 1.1875,-1.296875 0.5,-0.3125 1.050781,-0.46875 1.65625,-0.46875 0.476562,0 0.925781,0.117187 1.34375,0.34375 0.425781,0.21875 0.757812,0.484375 1,0.796875 v -0.421875 c 0,-0.1875 0.054688,-0.335937 0.171875,-0.453125 0.113281,-0.125 0.265625,-0.1875 0.453125,-0.1875 z m -2.796875,6 c 0.425781,0 0.804687,-0.101562 1.140625,-0.3125 0.34375,-0.207031 0.609375,-0.5 0.796875,-0.875 0.1875,-0.375 0.28125,-0.796875 0.28125,-1.265625 0,-0.46875 -0.09375,-0.882813 -0.28125,-1.25 -0.1875,-0.375 -0.453125,-0.664063 -0.796875,-0.875 C 4.757812,-5.828125 4.378906,-5.9375 3.953125,-5.9375 c -0.429687,0 -0.808594,0.109375 -1.140625,0.328125 -0.335938,0.210937 -0.601562,0.5 -0.796875,0.875 -0.1875,0.375 -0.28125,0.792969 -0.28125,1.25 0,0.460937 0.09375,0.875 0.28125,1.25 0.195313,0.375 0.460937,0.671875 0.796875,0.890625 0.332031,0.210938 0.710938,0.3125 1.140625,0.3125 z m 0,0"
           id="path1162" />
      </g>
    </g>
    <g
       style="fill:#ffffff;fill-opacity:1"
       id="g1172">
      <g
         transform="translate(248.86718,197.04017)"
         id="g1170"
         style="fill:#ffffff">
        <path
           style="stroke:none;fill:#ffffff"
           d="m 4.40625,-7.109375 c 0.226562,0 0.425781,0.0625 0.59375,0.1875 0.164062,0.117187 0.25,0.261719 0.25,0.4375 0,0.21875 -0.058594,0.386719 -0.171875,0.5 -0.105469,0.105469 -0.242187,0.15625 -0.40625,0.15625 -0.074219,0 -0.195313,-0.023437 -0.359375,-0.078125 C 4.132812,-5.96875 3.988281,-6 3.875,-6 3.601562,-6 3.335938,-5.90625 3.078125,-5.71875 2.816406,-5.53125 2.601562,-5.269531 2.4375,-4.9375 2.28125,-4.601562 2.203125,-4.234375 2.203125,-3.828125 v 3.1875 c 0,0.179687 -0.0625,0.328125 -0.1875,0.453125 C 1.898438,-0.0625 1.75,0 1.5625,0 1.375,0 1.222656,-0.0546875 1.109375,-0.171875 0.992188,-0.296875 0.9375,-0.453125 0.9375,-0.640625 V -6.3125 c 0,-0.175781 0.054688,-0.320312 0.171875,-0.4375 0.125,-0.125 0.273437,-0.1875 0.453125,-0.1875 0.1875,0 0.335938,0.0625 0.453125,0.1875 0.125,0.117188 0.1875,0.261719 0.1875,0.4375 v 0.6875 c 0.1875,-0.4375 0.472656,-0.789062 0.859375,-1.0625 0.394531,-0.269531 0.84375,-0.410156 1.34375,-0.421875 z m 0,0"
           id="path1168" />
      </g>
    </g>
    <g
       style="fill:#ffffff;fill-opacity:1"
       id="g1178">
      <g
         transform="translate(262.97397,197.04017)"
         id="g1176"
         style="fill:#ffffff">
        <path
           style="stroke:none;fill:#ffffff"
           d="m 7.515625,-3.46875 c 0,0.6875 -0.15625,1.308594 -0.46875,1.859375 -0.3125,0.542969 -0.734375,0.96875 -1.265625,1.28125 C 5.25,-0.0234375 4.660156,0.125 4.015625,0.125 3.367188,0.125 2.773438,-0.0234375 2.234375,-0.328125 1.703125,-0.640625 1.28125,-1.066406 0.96875,-1.609375 0.664062,-2.160156 0.515625,-2.78125 0.515625,-3.46875 c 0,-0.6875 0.148437,-1.304688 0.453125,-1.859375 0.3125,-0.5625 0.734375,-1 1.265625,-1.3125 0.539063,-0.3125 1.132813,-0.46875 1.78125,-0.46875 0.644531,0 1.234375,0.15625 1.765625,0.46875 0.53125,0.3125 0.953125,0.75 1.265625,1.3125 0.3125,0.554687 0.46875,1.171875 0.46875,1.859375 z m -1.265625,0 C 6.25,-3.945312 6.148438,-4.375 5.953125,-4.75 5.753906,-5.125 5.484375,-5.414062 5.140625,-5.625 4.804688,-5.832031 4.429688,-5.9375 4.015625,-5.9375 3.597656,-5.9375 3.21875,-5.832031 2.875,-5.625 2.539062,-5.414062 2.273438,-5.125 2.078125,-4.75 1.878906,-4.375 1.78125,-3.945312 1.78125,-3.46875 c 0,0.46875 0.097656,0.890625 0.296875,1.265625 0.195313,0.367187 0.460937,0.652344 0.796875,0.859375 0.34375,0.210938 0.722656,0.3125 1.140625,0.3125 0.414063,0 0.789063,-0.101562 1.125,-0.3125 0.34375,-0.207031 0.613281,-0.492188 0.8125,-0.859375 C 6.148438,-2.578125 6.25,-3 6.25,-3.46875 Z m 0,0"
           id="path1174" />
      </g>
    </g>
    <g
       style="fill:#ffffff;fill-opacity:1"
       id="g1184">
      <g
         transform="translate(279.63719,197.04017)"
         id="g1182"
         style="fill:#ffffff">
        <path
           style="stroke:none;fill:#ffffff"
           d="m 6.109375,-6.9375 c 0.1875,0 0.335937,0.0625 0.453125,0.1875 0.125,0.117188 0.1875,0.261719 0.1875,0.4375 v 3.53125 c 0,0.917969 -0.257812,1.632812 -0.765625,2.140625 C 5.472656,-0.128906 4.753906,0.125 3.828125,0.125 2.910156,0.125 2.195312,-0.128906 1.6875,-0.640625 c -0.5,-0.507813 -0.75,-1.222656 -0.75,-2.140625 V -6.3125 c 0,-0.175781 0.054688,-0.320312 0.171875,-0.4375 0.125,-0.125 0.273437,-0.1875 0.453125,-0.1875 0.1875,0 0.335938,0.0625 0.453125,0.1875 0.125,0.117188 0.1875,0.261719 0.1875,0.4375 v 3.53125 c 0,1.15625 0.539063,1.734375 1.625,1.734375 0.539063,0 0.953125,-0.144531 1.234375,-0.4375 0.28125,-0.289063 0.421875,-0.722656 0.421875,-1.296875 V -6.3125 c 0,-0.175781 0.054687,-0.320312 0.171875,-0.4375 0.125,-0.125 0.273438,-0.1875 0.453125,-0.1875 z m 0,0"
           id="path1180" />
      </g>
    </g>
    <g
       style="fill:#ffffff;fill-opacity:1"
       id="g1190">
      <g
         transform="translate(295.95604,197.04017)"
         id="g1188"
         style="fill:#ffffff">
        <path
           style="stroke:none;fill:#ffffff"
           d="m 4.421875,-7.0625 c 0.601563,0 1.144531,0.15625 1.625,0.46875 0.488281,0.304688 0.875,0.730469 1.15625,1.28125 0.28125,0.542969 0.421875,1.15625 0.421875,1.84375 0,0.6875 -0.140625,1.304688 -0.421875,1.84375 -0.28125,0.542969 -0.667969,0.96875 -1.15625,1.28125 -0.480469,0.3125 -1.011719,0.46875 -1.59375,0.46875 -0.460937,0 -0.886719,-0.1015625 -1.28125,-0.296875 -0.398437,-0.207031 -0.71875,-0.457031 -0.96875,-0.75 v 2.9375 c 0,0.175781 -0.0625,0.328125 -0.1875,0.453125 C 1.898438,2.59375 1.75,2.65625 1.5625,2.65625 1.382812,2.65625 1.234375,2.59375 1.109375,2.46875 0.992188,2.351562 0.9375,2.203125 0.9375,2.015625 V -6.3125 c 0,-0.1875 0.054688,-0.34375 0.171875,-0.46875 0.113281,-0.125 0.265625,-0.1875 0.453125,-0.1875 0.1875,0 0.335938,0.0625 0.453125,0.1875 0.125,0.125 0.1875,0.28125 0.1875,0.46875 v 0.375 C 2.410156,-6.25 2.71875,-6.515625 3.125,-6.734375 3.53125,-6.953125 3.960938,-7.0625 4.421875,-7.0625 Z M 4.28125,-1.046875 c 0.40625,0 0.769531,-0.101563 1.09375,-0.3125 0.332031,-0.21875 0.585938,-0.507813 0.765625,-0.875 0.175781,-0.363281 0.265625,-0.773437 0.265625,-1.234375 0,-0.457031 -0.089844,-0.867188 -0.265625,-1.234375 -0.179687,-0.375 -0.433594,-0.664063 -0.765625,-0.875 -0.324219,-0.207031 -0.6875,-0.3125 -1.09375,-0.3125 -0.417969,0 -0.792969,0.105469 -1.125,0.3125 -0.324219,0.199219 -0.574219,0.484375 -0.75,0.859375 -0.179688,0.375 -0.265625,0.792969 -0.265625,1.25 0,0.460938 0.085937,0.875 0.265625,1.25 0.175781,0.367188 0.425781,0.652344 0.75,0.859375 0.332031,0.210937 0.707031,0.3125 1.125,0.3125 z m 0,0"
           id="path1186" />
      </g>
    </g>
    <g
       style="fill:#ffffff;fill-opacity:1"
       id="g1196">
      <g
         transform="translate(129.61679,229.10221)"
         id="g1194"
         style="fill:#ffffff">
        <path
           style="stroke:none;fill:#ffffff"
           d="m 4.78125,-0.578125 c 0.082031,0 0.148438,0.03125 0.203125,0.09375 0.0625,0.054687 0.09375,0.121094 0.09375,0.203125 0,0.085938 -0.03125,0.152344 -0.09375,0.203125 C 4.929688,-0.0234375 4.863281,0 4.78125,0 H 1.203125 C 1.117188,0 1.050781,-0.0234375 1,-0.078125 0.945312,-0.140625 0.921875,-0.210938 0.921875,-0.296875 V -6.53125 c 0,-0.082031 0.023437,-0.148438 0.078125,-0.203125 0.050781,-0.0625 0.117188,-0.09375 0.203125,-0.09375 H 4.78125 c 0.082031,0 0.148438,0.03125 0.203125,0.09375 0.0625,0.054687 0.09375,0.121094 0.09375,0.203125 0,0.085938 -0.03125,0.152344 -0.09375,0.203125 C 4.929688,-6.273438 4.863281,-6.25 4.78125,-6.25 h -3.25 v 2.453125 h 2.8125 c 0.082031,0 0.148438,0.027344 0.203125,0.078125 0.0625,0.054688 0.09375,0.121094 0.09375,0.203125 0,0.085937 -0.03125,0.152344 -0.09375,0.203125 -0.054687,0.054688 -0.121094,0.078125 -0.203125,0.078125 h -2.8125 v 2.65625 z m 0,0"
           id="path1192" />
      </g>
    </g>
    <g
       style="fill:#ffffff;fill-opacity:1"
       id="g1202">
      <g
         transform="translate(135.73574,229.10221)"
         id="g1200"
         style="fill:#ffffff">
        <path
           style="fill:#ffffff;stroke:none"
           d="m 2.765625,0.09375 c -0.46875,0 -0.886719,-0.078125 -1.25,-0.234375 C 1.148438,-0.296875 0.800781,-0.539062 0.46875,-0.875 0.382812,-0.9375 0.34375,-1.015625 0.34375,-1.109375 0.34375,-1.179688 0.375,-1.25 0.4375,-1.3125 0.5,-1.375 0.570312,-1.40625 0.65625,-1.40625 c 0.070312,0 0.144531,0.03125 0.21875,0.09375 0.5,0.554688 1.128906,0.828125 1.890625,0.828125 0.46875,0 0.851563,-0.109375 1.15625,-0.328125 0.3125,-0.21875 0.46875,-0.503906 0.46875,-0.859375 C 4.390625,-1.953125 4.3125,-2.1875 4.15625,-2.375 4.007812,-2.5625 3.8125,-2.710938 3.5625,-2.828125 3.320312,-2.941406 3.007812,-3.0625 2.625,-3.1875 2.207031,-3.3125 1.859375,-3.445312 1.578125,-3.59375 1.296875,-3.75 1.066406,-3.953125 0.890625,-4.203125 0.710938,-4.453125 0.625,-4.765625 0.625,-5.140625 c 0,-0.351563 0.09375,-0.660156 0.28125,-0.921875 0.1875,-0.269531 0.445312,-0.476562 0.78125,-0.625 0.332031,-0.15625 0.71875,-0.234375 1.15625,-0.234375 0.394531,0 0.765625,0.070313 1.109375,0.203125 0.34375,0.136719 0.617187,0.324219 0.828125,0.5625 0.101562,0.117188 0.15625,0.210938 0.15625,0.28125 0,0.074219 -0.039062,0.140625 -0.109375,0.203125 -0.0625,0.0625 -0.132813,0.09375 -0.203125,0.09375 -0.0625,0 -0.121094,-0.019531 -0.171875,-0.0625 -0.179687,-0.207031 -0.414063,-0.375 -0.703125,-0.5 C 3.457031,-6.273438 3.15625,-6.34375 2.84375,-6.34375 c -0.480469,0 -0.871094,0.105469 -1.171875,0.3125 -0.292969,0.210938 -0.4375,0.496094 -0.4375,0.859375 0,0.375 0.140625,0.667969 0.421875,0.875 0.289062,0.199219 0.703125,0.382813 1.234375,0.546875 0.457031,0.136719 0.832031,0.277344 1.125,0.421875 0.289063,0.148437 0.53125,0.351563 0.71875,0.609375 0.1875,0.261719 0.28125,0.609375 0.28125,1.046875 0,0.324219 -0.101563,0.621094 -0.296875,0.890625 -0.1875,0.273438 -0.453125,0.484375 -0.796875,0.640625 -0.34375,0.15625 -0.730469,0.234375 -1.15625,0.234375 z m 0,0"
           id="path1198" />
      </g>
    </g>
    <g
       style="fill:#000000;fill-opacity:1"
       id="g1208">
      <g
         transform="translate(141.79624,229.10221)"
         id="g1206">
        <path
           style="stroke:none;fill:#ffffff"
           d="m 5.265625,-6.828125 c 0.082031,0 0.148437,0.027344 0.203125,0.078125 0.0625,0.054688 0.09375,0.121094 0.09375,0.203125 0,0.085937 -0.03125,0.152344 -0.09375,0.203125 -0.054688,0.054688 -0.121094,0.078125 -0.203125,0.078125 H 3.25 v 5.96875 c 0,0.085937 -0.03125,0.15625 -0.09375,0.21875 C 3.101562,-0.0234375 3.03125,0 2.9375,0 2.851562,0 2.78125,-0.0234375 2.71875,-0.078125 2.664062,-0.140625 2.640625,-0.210938 2.640625,-0.296875 v -5.96875 H 0.625 c -0.085938,0 -0.15625,-0.023437 -0.21875,-0.078125 -0.054688,-0.050781 -0.078125,-0.117188 -0.078125,-0.203125 0,-0.082031 0.023437,-0.148437 0.078125,-0.203125 0.0625,-0.050781 0.132812,-0.078125 0.21875,-0.078125 z m 0,0"
           id="path1204" />
      </g>
    </g>
    <g
       style="fill:#000000;fill-opacity:1"
       id="g1214">
      <g
         transform="translate(148.26595,229.10221)"
         id="g1212">
        <path
           style="stroke:none"
           d=""
           id="path1210" />
      </g>
    </g>
    <g
       style="fill:#ffffff;fill-opacity:1"
       id="g1220">
      <g
         transform="translate(151.5107,229.10221)"
         id="g1218"
         style="fill:#ffffff">
        <path
           style="fill:#ffffff;stroke:none"
           d="m 4.8125,-0.5625 c 0.070312,0 0.132812,0.027344 0.1875,0.078125 0.0625,0.054687 0.09375,0.121094 0.09375,0.203125 C 5.09375,-0.195312 5.0625,-0.128906 5,-0.078125 4.945312,-0.0234375 4.882812,0 4.8125,0 H 1.15625 C 1.0625,0 0.984375,-0.0234375 0.921875,-0.078125 0.867188,-0.128906 0.84375,-0.203125 0.84375,-0.296875 0.84375,-0.367188 0.867188,-0.4375 0.921875,-0.5 l 2.25,-2.484375 C 3.535156,-3.367188 3.800781,-3.71875 3.96875,-4.03125 c 0.175781,-0.3125 0.265625,-0.613281 0.265625,-0.90625 0,-0.445312 -0.136719,-0.796875 -0.40625,-1.046875 -0.261719,-0.25 -0.625,-0.375 -1.09375,-0.375 -0.324219,0 -0.609375,0.078125 -0.859375,0.234375 -0.25,0.148438 -0.4375,0.375 -0.5625,0.6875 -0.074219,0.117188 -0.15625,0.171875 -0.25,0.171875 -0.074219,0 -0.140625,-0.023437 -0.203125,-0.078125 -0.0625,-0.050781 -0.09375,-0.109375 -0.09375,-0.171875 0,-0.039063 0.007813,-0.085937 0.03125,-0.140625 0.03125,-0.050781 0.0625,-0.101562 0.09375,-0.15625 C 1.066406,-6.164062 1.320312,-6.4375 1.65625,-6.625 2,-6.820312 2.367188,-6.921875 2.765625,-6.921875 c 0.65625,0 1.164063,0.183594 1.53125,0.546875 0.375,0.355469 0.5625,0.820312 0.5625,1.390625 0,0.355469 -0.101563,0.71875 -0.296875,1.09375 -0.1875,0.375 -0.507812,0.8125 -0.953125,1.3125 L 1.8125,-0.5625 Z m 0,0"
           id="path1216" />
      </g>
    </g>
    <g
       style="fill:#ffffff;fill-opacity:1"
       id="g1226">
      <g
         transform="translate(157.61992,229.10221)"
         id="g1224"
         style="fill:#ffffff">
        <path
           style="fill:#ffffff;stroke:none"
           d="M 2.890625,0.09375 C 2.378906,0.09375 1.945312,-0.0546875 1.59375,-0.359375 1.25,-0.660156 0.984375,-1.078125 0.796875,-1.609375 0.617188,-2.140625 0.53125,-2.738281 0.53125,-3.40625 c 0,-0.675781 0.085938,-1.273438 0.265625,-1.796875 0.175781,-0.53125 0.441406,-0.945313 0.796875,-1.25 0.351562,-0.3125 0.785156,-0.46875 1.296875,-0.46875 0.519531,0 0.957031,0.152344 1.3125,0.453125 0.351563,0.304688 0.617187,0.71875 0.796875,1.25 0.175781,0.53125 0.265625,1.136719 0.265625,1.8125 0,0.667969 -0.089844,1.265625 -0.265625,1.796875 -0.179688,0.53125 -0.445312,0.949219 -0.796875,1.25 -0.355469,0.3046875 -0.792969,0.453125 -1.3125,0.453125 z m 0,-0.59375 c 0.5625,0 0.992187,-0.257812 1.296875,-0.78125 0.300781,-0.53125 0.453125,-1.238281 0.453125,-2.125 0,-0.90625 -0.152344,-1.617188 -0.453125,-2.140625 -0.304688,-0.519531 -0.734375,-0.78125 -1.296875,-0.78125 -0.554687,0 -0.980469,0.261719 -1.28125,0.78125 C 1.304688,-5.023438 1.15625,-4.3125 1.15625,-3.40625 c 0,0.886719 0.148438,1.59375 0.453125,2.125 C 1.910156,-0.757812 2.335938,-0.5 2.890625,-0.5 Z m 0,0"
           id="path1222" />
      </g>
    </g>
    <g
       style="fill:#ffffff;fill-opacity:1"
       id="g1232">
      <g
         transform="translate(164.00194,229.10221)"
         id="g1230"
         style="fill:#ffffff">
        <path
           style="fill:#ffffff;stroke:none"
           d="M 2.890625,0.09375 C 2.378906,0.09375 1.945312,-0.0546875 1.59375,-0.359375 1.25,-0.660156 0.984375,-1.078125 0.796875,-1.609375 0.617188,-2.140625 0.53125,-2.738281 0.53125,-3.40625 c 0,-0.675781 0.085938,-1.273438 0.265625,-1.796875 0.175781,-0.53125 0.441406,-0.945313 0.796875,-1.25 0.351562,-0.3125 0.785156,-0.46875 1.296875,-0.46875 0.519531,0 0.957031,0.152344 1.3125,0.453125 0.351563,0.304688 0.617187,0.71875 0.796875,1.25 0.175781,0.53125 0.265625,1.136719 0.265625,1.8125 0,0.667969 -0.089844,1.265625 -0.265625,1.796875 -0.179688,0.53125 -0.445312,0.949219 -0.796875,1.25 -0.355469,0.3046875 -0.792969,0.453125 -1.3125,0.453125 z m 0,-0.59375 c 0.5625,0 0.992187,-0.257812 1.296875,-0.78125 0.300781,-0.53125 0.453125,-1.238281 0.453125,-2.125 0,-0.90625 -0.152344,-1.617188 -0.453125,-2.140625 -0.304688,-0.519531 -0.734375,-0.78125 -1.296875,-0.78125 -0.554687,0 -0.980469,0.261719 -1.28125,0.78125 C 1.304688,-5.023438 1.15625,-4.3125 1.15625,-3.40625 c 0,0.886719 0.148438,1.59375 0.453125,2.125 C 1.910156,-0.757812 2.335938,-0.5 2.890625,-0.5 Z m 0,0"
           id="path1228" />
      </g>
    </g>
    <g
       style="fill:#ffffff;fill-opacity:1"
       id="g1238">
      <g
         transform="translate(170.38396,229.10221)"
         id="g1236"
         style="fill:#ffffff">
        <path
           style="fill:#ffffff;stroke:none"
           d="M 2.890625,0.09375 C 2.378906,0.09375 1.945312,-0.0546875 1.59375,-0.359375 1.25,-0.660156 0.984375,-1.078125 0.796875,-1.609375 0.617188,-2.140625 0.53125,-2.738281 0.53125,-3.40625 c 0,-0.675781 0.085938,-1.273438 0.265625,-1.796875 0.175781,-0.53125 0.441406,-0.945313 0.796875,-1.25 0.351562,-0.3125 0.785156,-0.46875 1.296875,-0.46875 0.519531,0 0.957031,0.152344 1.3125,0.453125 0.351563,0.304688 0.617187,0.71875 0.796875,1.25 0.175781,0.53125 0.265625,1.136719 0.265625,1.8125 0,0.667969 -0.089844,1.265625 -0.265625,1.796875 -0.179688,0.53125 -0.445312,0.949219 -0.796875,1.25 -0.355469,0.3046875 -0.792969,0.453125 -1.3125,0.453125 z m 0,-0.59375 c 0.5625,0 0.992187,-0.257812 1.296875,-0.78125 0.300781,-0.53125 0.453125,-1.238281 0.453125,-2.125 0,-0.90625 -0.152344,-1.617188 -0.453125,-2.140625 -0.304688,-0.519531 -0.734375,-0.78125 -1.296875,-0.78125 -0.554687,0 -0.980469,0.261719 -1.28125,0.78125 C 1.304688,-5.023438 1.15625,-4.3125 1.15625,-3.40625 c 0,0.886719 0.148438,1.59375 0.453125,2.125 C 1.910156,-0.757812 2.335938,-0.5 2.890625,-0.5 Z m 0,0"
           id="path1234" />
      </g>
    </g>
  </g>
</svg>
